<svg xmlns="http://www.w3.org/2000/svg" version="1.1" xmlns:xlink="http://www.w3.org/1999/xlink" xmlns:svgjs="http://svgjs.com/svgjs" width="512" height="512" x="0" y="0" viewBox="30 45 230 230" style="enable-background:new 0 0 512 512" xml:space="preserve" class=""><g><g><g><circle cx="146" cy="160" fill="#b5a19c" r="108" data-original="#b5a19c" class=""></circle><path d="m146 272c-61.758 0-112-50.242-112-112s50.242-112 112-112 112 50.242 112 112-50.242 112-112 112zm0-216c-57.348 0-104 46.654-104 104s46.652 104 104 104 104-46.654 104-104-46.652-104-104-104z" fill="#4c241d" data-original="#4c241d" class=""></path></g><g><path d="m145.339 196-76.821 39.199c19.628 20.219 47.078 32.801 77.482 32.801 30.369 0 57.792-12.553 77.415-32.731z" fill="#ffce56" data-original="#ffce56"></path><path d="m146 272c-30.523 0-59.059-12.08-80.352-34.016-.883-.91-1.281-2.188-1.074-3.439s.996-2.332 2.129-2.908l76.82-39.199c1.133-.58 2.473-.582 3.613-.012l78.074 39.27c1.141.574 1.938 1.654 2.148 2.91.211 1.258-.188 2.539-1.078 3.453-21.284 21.886-49.792 33.941-80.28 33.941zm-70.707-35.766c19.289 17.948 44.191 27.766 70.707 27.766 26.469 0 51.336-9.787 70.613-27.674l-71.262-35.842z" fill="#4c241d" data-original="#4c241d" class=""></path></g><g><path d="m194 140v-38.533c0-14.065-13.682-25.467-30.56-25.467h-34.88c-16.878 0-30.56 11.402-30.56 25.467v38.533z" fill="#6b4f5b" data-original="#6b4f5b" class=""></path><path d="m194 144h-96c-2.211 0-4-1.791-4-4v-38.533c0-16.248 15.504-29.467 34.559-29.467h34.883c19.054 0 34.558 13.219 34.558 29.467v38.533c0 2.209-1.789 4-4 4zm-92-8h88v-34.533c0-11.836-11.914-21.467-26.559-21.467h-34.883c-14.644 0-26.558 9.631-26.558 21.467z" fill="#4c241d" data-original="#4c241d" class=""></path></g><g><path d="m146 236c-13.255 0-24-10.745-24-24v-16h48v16c0 13.255-10.745 24-24 24z" fill="#ffe8dc" data-original="#ffe8dc"></path><path d="m146 240c-15.438 0-28-12.561-28-28v-16c0-2.209 1.789-4 4-4h48c2.211 0 4 1.791 4 4v16c0 15.439-12.562 28-28 28zm-20-40v12c0 11.027 8.973 20 20 20s20-8.973 20-20v-12z" fill="#4c241d" data-original="#4c241d" class=""></path></g><g><path d="m110 132v-12l12-12v16l40-16h4.673c8.097 0 14.661 6.564 14.661 14.661v9.387h4.666c6.343.257 11.148 5.914 10.241 12.263l-.918 6.429c-.694 4.857-4.565 8.534-9.323 9.136v21.814c0 4.005-1.75 7.81-4.791 10.417l-20.114 17.24c-1.997 1.712-4.541 2.653-7.172 2.653h-15.846c-2.631 0-5.175-.941-7.172-2.653l-20.114-17.241c-3.041-2.606-4.791-6.411-4.791-10.416v-21.814c-4.758-.603-8.629-4.28-9.323-9.136l-.918-6.429c-.907-6.349 3.898-12.005 10.241-12.263z" fill="#ffe8dc" data-original="#ffe8dc"></path><path d="m153.922 216h-15.844c-3.582 0-7.055-1.283-9.773-3.615l-20.117-17.242c-3.934-3.371-6.188-8.273-6.188-13.453v-18.732c-4.887-1.9-8.52-6.312-9.285-11.65l-.918-6.432c-.586-4.117.602-8.312 3.262-11.506 2.672-3.211 6.602-5.148 10.781-5.316l.16-.002v-8.052c0-1.061.422-2.078 1.172-2.828l12-12c1.145-1.146 2.863-1.482 4.359-.867 1.496.619 2.469 2.078 2.469 3.695v10.092l34.516-13.807c.473-.188.977-.285 1.484-.285h4.672c10.293 0 18.664 8.371 18.664 18.662v5.387h.664c4.34.172 8.27 2.109 10.941 5.32 2.66 3.193 3.848 7.389 3.262 11.506l-.918 6.43c-.766 5.34-4.398 9.752-9.285 11.652v18.732c0 5.18-2.258 10.084-6.191 13.455l-20.113 17.24c-2.719 2.333-6.192 3.616-9.774 3.616zm-39.922-94.344v10.344c0 2.189-1.762 3.973-3.949 4l-4 .049c-1.812.074-3.617.965-4.844 2.439-1.234 1.48-1.762 3.346-1.488 5.258l.918 6.43c.426 2.99 2.84 5.35 5.867 5.732 1.996.254 3.496 1.955 3.496 3.969v21.812c0 2.842 1.238 5.531 3.391 7.379l20.117 17.242c1.273 1.09 2.895 1.689 4.57 1.689h15.844c1.676 0 3.297-.6 4.57-1.689l20.113-17.24c2.156-1.85 3.395-4.539 3.395-7.381v-21.812c0-2.014 1.5-3.715 3.496-3.969 3.027-.383 5.441-2.742 5.867-5.734l.918-6.428c.273-1.912-.254-3.777-1.488-5.258-1.227-1.475-3.031-2.365-4.953-2.443l-4.504.004c-2.211 0-4-1.791-4-4v-9.387c0-5.879-4.785-10.662-10.664-10.662h-3.902l-39.285 15.715c-1.227.49-2.629.342-3.727-.402s-1.758-1.985-1.758-3.313v-6.344zm-4 10.344h.039z" fill="#4c241d" data-original="#4c241d" class=""></path></g><circle cx="166" cy="144" fill="#4c241d" r="4" data-original="#4c241d" class=""></circle><circle cx="126" cy="144" fill="#4c241d" r="4" data-original="#4c241d" class=""></circle><path d="m154 176h-16c-2.211 0-4-1.791-4-4s1.789-4 4-4h16c2.211 0 4 1.791 4 4s-1.789 4-4 4z" fill="#e66353" data-original="#e66353"></path><g fill="#4c241d"><path d="m131.07 160h-14.14c-6.027 0-10.93-4.902-10.93-10.93v-13.07c0-2.209 1.789-4 4-4h28c2.211 0 4 1.791 4 4v13.07c0 6.028-4.902 10.93-10.93 10.93zm-17.07-20v9.07c0 1.615 1.312 2.93 2.93 2.93h14.141c1.617 0 2.93-1.314 2.93-2.93v-9.07z" fill="#4c241d" data-original="#4c241d" class=""></path><path d="m175.07 160h-14.14c-6.027 0-10.93-4.902-10.93-10.93v-13.07c0-2.209 1.789-4 4-4h28c2.211 0 4 1.791 4 4v13.07c0 6.028-4.902 10.93-10.93 10.93zm-17.07-20v9.07c0 1.615 1.312 2.93 2.93 2.93h14.141c1.617 0 2.93-1.314 2.93-2.93v-9.07z" fill="#4c241d" data-original="#4c241d" class=""></path><path d="m154 148c-2.211 0-4-1.791-4-4 0-2.205-1.793-4-4-4-2.078 0-3.828 1.621-3.988 3.688-.168 2.203-2.121 3.824-4.293 3.684-2.203-.168-3.852-2.092-3.684-4.293.477-6.214 5.731-11.079 11.965-11.079 6.617 0 12 5.383 12 12 0 2.209-1.789 4-4 4z" fill="#4c241d" data-original="#4c241d" class=""></path></g></g></g></svg>